<svg width="94" height="102" viewBox="0 0 94 102" fill="none" xmlns="http://www.w3.org/2000/svg">
<path fill-rule="evenodd" clip-rule="evenodd" d="M93.9999 86.5196C93.9999 83.6717 91.556 81.3595 88.5458 81.3595H5.45411C2.4439 81.3595 0 83.6717 0 86.5196V96.8399C0 99.6878 2.4439 102 5.45411 102H88.5458C91.556 102 93.9999 99.6878 93.9999 96.8399V86.5196ZM83.4334 94.7313L85.2872 95.1578C85.0341 95.7869 84.6396 96.2716 84.1035 96.6119C83.5674 96.9521 82.9533 97.1222 82.2609 97.1222C81.1441 97.1222 80.3251 96.8204 79.804 96.2169C79.2828 95.6134 79.0223 94.6544 79.0223 93.3401C79.0223 92.0212 79.2828 91.0401 79.804 90.3969C80.3251 89.7537 81.1367 89.4322 82.2385 89.4322C83.1468 89.4322 83.8895 89.6967 84.4665 90.2257C85.0435 90.7547 85.332 91.5201 85.332 92.5222V93.6407H81.2335V93.9563C81.2335 94.6155 81.3153 95.1052 81.4791 95.4254C81.6429 95.7457 81.9184 95.9058 82.3055 95.9058C82.9533 95.9058 83.3292 95.5143 83.4334 94.7313ZM48.0321 94.2699L49.9083 94.7732C49.871 95.5236 49.577 96.1027 49.026 96.5105C48.4751 96.9183 47.7566 97.1222 46.8707 97.1222C45.672 97.1222 44.8121 96.8297 44.291 96.2449C43.7698 95.6599 43.5092 94.673 43.5092 93.2842C43.5092 91.9606 43.727 91.0016 44.1625 90.4074C44.5981 89.8132 45.2849 89.5161 46.223 89.5161C46.96 89.5161 47.5259 89.7444 47.9205 90.2012L47.9651 89.6H49.9083V92.2635H47.9651C47.9651 91.6716 47.8776 91.2568 47.7027 91.0191C47.5277 90.7814 47.2355 90.6626 46.826 90.6626C46.3794 90.6626 46.0834 90.8178 45.9382 91.1281C45.793 91.4384 45.7204 91.9716 45.7204 92.7276V93.8477C45.7204 94.6271 45.8079 95.1649 45.9829 95.4613C46.1578 95.7576 46.4538 95.9058 46.8707 95.9058C47.3025 95.9058 47.604 95.79 47.7753 95.5583C47.9465 95.3266 48.0321 94.8971 48.0321 94.2699ZM29.1142 89.6V95.731H30.0523V96.9474H27.0147V96.3602C26.5233 96.8076 25.883 97.0313 25.1832 97.0313C23.858 97.0313 23.1953 96.4254 23.1953 95.2137V90.8164H22.235V89.6H25.2949V95.018C25.2949 95.3115 25.4345 95.6366 25.4345 95.6366C25.4345 95.6366 25.7043 95.8149 25.9649 95.8149C26.2404 95.8149 26.4842 95.7357 26.6964 95.5772C26.9086 95.4188 27.0147 95.2836 27.0147 95.2836V90.8164H25.9872V89.6H29.1142ZM31.2919 96.9474V94.4167H33.235C33.2725 95.3954 33.6022 95.8848 34.2243 95.8848C34.6964 95.8848 34.9325 95.6703 34.9325 95.2412C34.9325 94.8727 34.8099 94.5976 34.5647 94.4156C34.3194 94.2338 33.8839 93.9893 33.2581 93.682C32.5131 93.3189 31.9824 92.9661 31.666 92.6235C31.3495 92.281 31.1914 91.886 31.1914 91.4386C31.1914 90.8933 31.3943 90.4365 31.8 90.0684C32.2058 89.7002 32.7065 89.5161 33.3021 89.5161C33.9126 89.5161 34.4076 89.7258 34.7873 90.1452L34.832 89.6H36.7752V92.0048H34.832C34.832 91.4689 34.7683 91.1088 34.6407 90.9248C34.5133 90.7406 34.292 90.6486 33.977 90.6486C33.5196 90.6486 33.2909 90.8492 33.2909 91.2503C33.2909 91.5487 33.3912 91.7924 33.5917 91.9812C33.7923 92.1701 34.1831 92.395 34.7641 92.6557C35.5986 93.0281 36.1851 93.3925 36.5239 93.7491C36.8627 94.1056 37.032 94.5566 37.032 95.1018C37.032 95.6611 36.8198 96.1225 36.3955 96.486C35.9711 96.8496 35.4425 97.0313 34.8097 97.0313C34.2141 97.0313 33.7041 96.8216 33.2797 96.4021L33.235 96.9474H31.2919ZM39.2655 95.731V90.8164H38.4168V89.6H41.3651V95.731H42.0239V96.9474H38.4168V95.731H39.2655ZM75.0131 95.731V87.6285H74.1867V86.4121H77.1126V95.731H77.805V96.9474H74.1867V95.731H75.0131ZM70.2668 95.731V90.8164H69.4181V89.6H72.3663V95.731H73.0252V96.9474H69.4181V95.731H70.2668ZM60.5957 96.9474V95.731H61.4667V87.6285H60.5957V86.4121H63.5662V89.9145C64.1544 89.5929 64.7128 89.4322 65.2414 89.4322C66.6708 89.4322 67.3856 90.1336 67.3856 91.5364V95.731H68.2567V96.9474H65.2861V91.4036C65.2861 90.9003 65.0553 90.6486 64.5937 90.6486C64.3034 90.6486 63.9608 90.7674 63.5662 91.0051V95.731H64.4373V96.9474H60.5957ZM52.5215 95.6751V87.6845H51.1479V86.4121H55.3134C56.7652 86.4121 57.9025 86.701 58.7251 87.279C59.5478 87.8569 59.9591 88.6562 59.9591 89.6769C59.9591 90.6835 59.572 91.4712 58.7977 92.0398C58.0234 92.6084 56.7242 92.8927 54.9002 92.8927V95.6751H56.2961V96.9474H51.1479V95.6751H52.5215ZM8.66824 96.9474V95.6751H9.93017V87.6845H8.66824V86.4121H13.6708L14.3199 88.6355C14.4101 88.9478 14.4964 89.3695 14.5791 89.9008L14.8718 91.865L15.2841 90.1383C15.4178 89.4578 15.5478 88.8845 15.6741 88.4185L16.198 86.4121H21.2318V87.6845H19.9698V95.6751H21.2541V96.9474H16.3069V95.6751H17.5688V90.334L17.7475 87.4957H17.5241L16.7647 91.103L15.1727 96.9474H14.4574L12.9041 91.5364L12.052 87.4957H11.8287L11.9627 90.32V95.6751H13.2246V96.9474H8.66824ZM81.2335 92.5921H83.2325V91.9489C83.2325 91.0354 82.8956 90.5787 82.2219 90.5787C81.84 90.5787 81.5797 90.7138 81.4412 90.9842C81.3028 91.2545 81.2335 91.6856 81.2335 92.2775V92.5921ZM54.9003 87.6845V91.6204C55.4363 91.6204 55.8774 91.5842 56.2236 91.512C56.5698 91.4397 56.862 91.2615 57.1003 90.9771C57.3385 90.6929 57.4576 90.2548 57.4576 89.6629C57.4576 88.8985 57.2436 88.3777 56.8155 88.1004C56.3874 87.8231 55.749 87.6845 54.9003 87.6845ZM71.2497 86.2373C71.6294 86.2373 71.9495 86.3189 72.2101 86.482C72.4706 86.6451 72.6009 86.8455 72.6009 87.0832C72.6009 87.3163 72.4706 87.5155 72.2101 87.681C71.9495 87.8464 71.6294 87.9291 71.2497 87.9291C70.8774 87.9291 70.5591 87.8464 70.2948 87.681C70.0306 87.5155 69.8984 87.3163 69.8984 87.0832C69.8984 86.8455 70.0306 86.6451 70.2948 86.482C70.5591 86.3189 70.8774 86.2373 71.2497 86.2373ZM40.2484 86.2373C40.6281 86.2373 40.9482 86.3189 41.2087 86.482C41.4694 86.6451 41.5997 86.8455 41.5997 87.0832C41.5997 87.3163 41.4694 87.5155 41.2087 87.681C40.9482 87.8464 40.6281 87.9291 40.2484 87.9291C39.8761 87.9291 39.5579 87.8464 39.2936 87.681C39.0292 87.5155 38.8971 87.3163 38.8971 87.0832C38.8971 86.8455 39.0292 86.6451 39.2936 86.482C39.5579 86.3189 39.8761 86.2373 40.2484 86.2373ZM17.2776 78.9027C6.73506 70.7465 0.00032349 58.3446 0.00032349 44.4663C0.00032349 19.9247 21.0602 0 47.0001 0C72.9401 0 94 19.9247 94 44.4663C94 58.3446 87.2652 70.7465 76.7226 78.9027H17.2776ZM70.3634 50.6783C65.6848 39.4551 66.0091 30.2372 67.1493 24.516C67.4687 22.9098 67.3606 20.0467 66.0975 17.2035C64.9721 14.6695 62.5542 12.9337 59.8168 12.6344C59.2124 12.5696 58.6521 12.5297 58.2442 12.5447C53.0201 12.7492 43.8693 16.6847 40.4047 18.3008L24.526 24.6456C18.5648 27.6634 23.8872 35.4647 24.5506 36.572C31.9567 48.9225 33.2688 56.0604 29.6666 57.7263C24.3491 60.1855 20.9728 66.0265 21.823 69.2388C22.7666 72.7902 26.8014 76.6061 31.2195 76.3817C35.4853 76.1622 38.7535 72.3114 40.1 68.9644C44.5672 57.8361 33.087 49.3415 37.0236 40.0986C39.5545 34.1528 48.489 28.8955 55.5757 31.7686C62.8884 34.7365 64.1465 48.9973 61.3698 50.3491C57.6987 52.1398 54.3077 56.1701 54.5682 59.8164C55.1088 67.4081 60.7654 68.1414 63.66 67.902C68.4467 67.5029 71.4396 63.8716 72.1767 59.956C72.7125 57.1826 71.5085 53.4217 70.3634 50.6783ZM56.4111 24.6905L35.2494 32.0878C34.0797 32.4968 32.8168 31.9431 32.4334 30.8508C32.0452 29.7584 32.6792 28.5413 33.8488 28.1323L55.0105 20.735C56.1801 20.326 57.4432 20.8796 57.8265 21.9721C58.2098 23.0644 57.5808 24.2815 56.4111 24.6905Z" fill="#FFEAEF"/>
</svg>
