<svg width="149" height="95" viewBox="0 0 149 95" fill="none" xmlns="http://www.w3.org/2000/svg">
<path fill-rule="evenodd" clip-rule="evenodd" d="M54.866 55C48.2233 49.2822 44 40.7215 44 31.1611C44 13.9628 57.6666 0 74.5 0C91.3334 0 105 13.9628 105 31.1611C105 40.7215 100.777 49.2822 94.134 55H54.866ZM89.6613 35.5142C86.6252 27.6492 86.8356 21.1896 87.5755 17.1803C87.7828 16.0547 87.7126 14.0482 86.893 12.0558C86.1627 10.2801 84.5937 9.06368 82.8172 8.85392C82.4249 8.80846 82.0614 8.78052 81.7966 8.79104C78.4066 8.93432 72.4683 11.6923 70.22 12.8248L59.9156 17.2711C56.0471 19.386 59.501 24.8529 59.9316 25.6289C64.7376 34.2838 65.5892 39.2859 63.2515 40.4534C59.8008 42.1767 57.6099 46.27 58.1616 48.521C58.7739 51.0098 61.3922 53.6839 64.2594 53.5267C67.0275 53.3728 69.1484 50.6743 70.0222 48.3288C72.9212 40.5302 65.4712 34.5775 68.0258 28.1002C69.6682 23.9336 75.4661 20.2493 80.065 22.2627C84.8104 24.3426 85.6269 34.3363 83.825 35.2836C81.4427 36.5384 79.2421 39.3628 79.4112 41.918C79.762 47.2382 83.4327 47.752 85.3111 47.5842C88.4175 47.3046 90.3597 44.7599 90.8381 42.0159C91.1857 40.0724 90.4044 37.4368 89.6613 35.5142ZM80.6071 17.3026L66.8744 22.4865C66.1155 22.7731 65.2958 22.385 65.0471 21.6196C64.7951 20.854 65.2065 20.0011 65.9656 19.7145L79.6982 14.5307C80.4572 14.244 81.2768 14.632 81.5256 15.3975C81.7743 16.163 81.3662 17.016 80.6071 17.3026Z" fill="white"/>
<rect y="58" width="149" height="37" rx="17" fill="white"/>
<path d="M25.414 71.096L23.808 71.646V82.954L25.414 83.416V85H19.276V83.416L20.904 82.954V73.846L17.34 80.974L15.36 81.084L11.95 73.824V82.976L13.578 83.416V85H7.792V83.416L9.42 82.954V71.646L7.792 71.206V69.622L13.27 69.512L16.724 77.498L20.332 69.622L25.414 69.512V71.096ZM35.6906 69.622L42.0706 69.512V71.096L40.4646 71.624V78.95C40.4646 80.182 40.2592 81.2747 39.8486 82.228C39.4526 83.1813 38.7926 83.9293 37.8686 84.472C36.9592 85 35.7419 85.264 34.2166 85.264C32.9992 85.264 32.0092 85.1173 31.2466 84.824C30.4839 84.516 29.8899 84.1273 29.4646 83.658C29.0392 83.174 28.7312 82.6607 28.5406 82.118C28.3646 81.5607 28.2546 81.0327 28.2106 80.534C28.1812 80.0207 28.1666 79.588 28.1666 79.236V71.646L26.5386 71.206V69.622L32.9186 69.512V71.096L31.3126 71.646V79.236C31.3126 79.8813 31.3712 80.4827 31.4886 81.04C31.6059 81.5827 31.8699 82.0227 32.2806 82.36C32.6912 82.6827 33.3512 82.844 34.2606 82.844C35.1846 82.844 35.8592 82.668 36.2846 82.316C36.7246 81.964 37.0032 81.4947 37.1206 80.908C37.2526 80.3067 37.3186 79.654 37.3186 78.95V71.624L35.6906 71.206V69.622ZM46.7607 73.406C46.7607 73.8313 46.9074 74.1833 47.2007 74.462C47.494 74.7407 47.8754 74.9827 48.3447 75.188C48.814 75.3787 49.3274 75.5693 49.8847 75.76C50.4567 75.936 51.0214 76.1413 51.5787 76.376C52.1507 76.596 52.6714 76.882 53.1407 77.234C53.6247 77.5713 54.006 78.004 54.2847 78.532C54.578 79.06 54.7247 79.72 54.7247 80.512C54.7247 81.5973 54.4387 82.492 53.8667 83.196C53.3094 83.9 52.554 84.428 51.6007 84.78C50.662 85.1173 49.628 85.286 48.4987 85.286C47.7214 85.286 46.922 85.2053 46.1007 85.044C45.2794 84.8973 44.48 84.67 43.7027 84.362L43.8127 80.182H45.6387L46.0347 82.426C46.8707 82.778 47.7434 82.954 48.6527 82.954C49.4594 82.954 50.156 82.7927 50.7427 82.47C51.3294 82.1327 51.6227 81.612 51.6227 80.908C51.6227 80.4533 51.476 80.0793 51.1827 79.786C50.904 79.4927 50.53 79.2507 50.0607 79.06C49.5914 78.8547 49.078 78.6713 48.5207 78.51C47.9634 78.334 47.3987 78.136 46.8267 77.916C46.2694 77.696 45.756 77.4173 45.2867 77.08C44.8174 76.7427 44.436 76.3173 44.1427 75.804C43.864 75.276 43.7247 74.616 43.7247 73.824C43.7247 72.7973 43.9667 71.9467 44.4507 71.272C44.9494 70.5827 45.624 70.0767 46.4747 69.754C47.34 69.4167 48.308 69.248 49.3787 69.248C50.9334 69.248 52.5467 69.5707 54.2187 70.216L53.9767 74.066H52.1067L51.6887 71.91C50.9847 71.6753 50.2734 71.558 49.5547 71.558C48.8067 71.558 48.154 71.7047 47.5967 71.998C47.0394 72.2767 46.7607 72.746 46.7607 73.406ZM62.5978 71.096L60.9918 71.646V82.954L62.5978 83.416V85H56.2178V83.416L57.8458 82.954V71.646L56.2178 71.206V69.622L62.5978 69.512V71.096ZM70.8985 85.264C69.6958 85.264 68.5885 84.9633 67.5765 84.362C66.5792 83.7607 65.7798 82.8733 65.1785 81.7C64.5918 80.5267 64.2985 79.0747 64.2985 77.344C64.2985 75.6427 64.5918 74.1907 65.1785 72.988C65.7652 71.7853 66.5938 70.8613 67.6645 70.216C68.7352 69.5707 69.9892 69.248 71.4265 69.248C72.9078 69.248 74.5578 69.6293 76.3765 70.392L76.1785 74.352H74.3085L73.8465 72.108C72.9958 71.8147 72.2258 71.668 71.5365 71.668C70.2752 71.668 69.3145 72.1373 68.6545 73.076C68.0092 74 67.6865 75.2907 67.6865 76.948C67.6865 78.884 68.0605 80.3287 68.8085 81.282C69.5712 82.2353 70.5318 82.712 71.6905 82.712C72.2625 82.712 72.8712 82.5947 73.5165 82.36C74.1618 82.1107 74.7998 81.7367 75.4305 81.238L76.5965 83.064C75.6872 83.7973 74.7412 84.3473 73.7585 84.714C72.7905 85.0807 71.8372 85.264 70.8985 85.264ZM83.9629 79.522H82.8629V82.954L84.9529 83.416V85H78.0889V83.416L79.7169 82.954V71.624L78.0889 71.206V69.622L82.9289 69.512H84.9309C86.1482 69.512 87.1455 69.7247 87.9229 70.15C88.7002 70.5607 89.2722 71.1327 89.6389 71.866C90.0202 72.5847 90.2109 73.3913 90.2109 74.286C90.2109 75.2833 89.9835 76.178 89.5289 76.97C89.0889 77.7473 88.4069 78.3707 87.4829 78.84C86.5735 79.2947 85.4002 79.522 83.9629 79.522ZM84.4249 71.756H82.8629V77.256H83.9849C84.9529 77.256 85.6935 76.992 86.2069 76.464C86.7349 75.936 86.9989 75.232 86.9989 74.352C86.9989 73.5453 86.7789 72.9147 86.3389 72.46C85.9135 71.9907 85.2755 71.756 84.4249 71.756ZM91.0869 85V83.416L92.7149 82.954V71.646L91.0869 71.206V69.622L97.4669 69.512V71.096L95.8609 71.624V75.98H102.065V71.646L100.437 71.206V69.622L106.817 69.512V71.096L105.211 71.624V82.954L106.817 83.416V85H100.437V83.416L102.065 82.932V78.246H95.8609V82.932L97.4669 83.416V85H91.0869ZM114.783 71.096L113.177 71.646V82.954L114.783 83.416V85H108.403V83.416L110.031 82.954V71.646L108.403 71.206V69.622L114.783 69.512V71.096ZM125.526 80.336H127.396V85H116.374V83.416L118.002 82.954V71.646L116.374 71.206V69.622L122.908 69.512V71.096L121.148 71.646V82.734H125.108L125.526 80.336ZM138.278 80.864H140.148L140.104 85H128.642V83.416L130.27 82.954V71.646L128.642 71.206V69.622L133.35 69.512H139.862V73.472H137.992L137.64 71.778H133.416V76.024H138.146V78.202H133.416V82.734H137.904L138.278 80.864Z" fill="#870049"/>
</svg>
